G04*
G04 #@! TF.GenerationSoftware,Altium Limited,Altium Designer,20.1.12 (249)*
G04*
G04 Layer_Color=8388736*
%FSLAX44Y44*%
%MOMM*%
G71*
G04*
G04 #@! TF.SameCoordinates,1844C3CC-A0EC-40E1-9444-F8D5987F7045*
G04*
G04*
G04 #@! TF.FilePolarity,Negative*
G04*
G01*
G75*
%ADD17R,1.1432X1.0332*%
%ADD18R,0.8032X1.0032*%
%ADD19R,1.0032X0.8032*%
%ADD20R,1.0332X1.1432*%
%ADD21R,1.4032X0.8032*%
%ADD22C,1.8032*%
%ADD23C,0.7016*%
D17*
X157750Y116850D02*
D03*
Y103650D02*
D03*
X157743Y76108D02*
D03*
Y89307D02*
D03*
X187235Y101350D02*
D03*
Y88150D02*
D03*
D18*
X172493Y101250D02*
D03*
Y91250D02*
D03*
D19*
X173493Y116292D02*
D03*
X183493D02*
D03*
D20*
X123400Y95000D02*
D03*
X136600D02*
D03*
X139100Y25065D02*
D03*
X125900D02*
D03*
X139100Y40507D02*
D03*
X125900D02*
D03*
X84607Y55000D02*
D03*
X97808D02*
D03*
X172642Y131035D02*
D03*
X185842D02*
D03*
D21*
X140000Y58000D02*
D03*
Y67500D02*
D03*
Y77000D02*
D03*
X115000D02*
D03*
Y67500D02*
D03*
Y58000D02*
D03*
D22*
X15000Y130000D02*
D03*
Y20000D02*
D03*
X245000D02*
D03*
Y130000D02*
D03*
X130000D02*
D03*
D23*
X157750Y64250D02*
D03*
M02*
