G04*
G04 #@! TF.GenerationSoftware,Altium Limited,Altium Designer,20.1.12 (249)*
G04*
G04 Layer_Physical_Order=1*
G04 Layer_Color=255*
%FSLAX44Y44*%
%MOMM*%
G71*
G04*
G04 #@! TF.SameCoordinates,1844C3CC-A0EC-40E1-9444-F8D5987F7045*
G04*
G04*
G04 #@! TF.FilePolarity,Positive*
G04*
G01*
G75*
%ADD12R,0.9400X0.8300*%
%ADD13R,0.6000X0.8000*%
%ADD14R,0.8000X0.6000*%
%ADD15R,0.8300X0.9400*%
%ADD16R,1.2000X0.6000*%
%ADD24C,0.2540*%
%ADD25C,1.6000*%
%ADD26C,0.6000*%
D12*
X157750Y116850D02*
D03*
Y103650D02*
D03*
X157743Y76108D02*
D03*
Y89307D02*
D03*
X187235Y101350D02*
D03*
Y88150D02*
D03*
D13*
X172493Y101250D02*
D03*
Y91250D02*
D03*
D14*
X173493Y116292D02*
D03*
X183493D02*
D03*
D15*
X123400Y95000D02*
D03*
X136600D02*
D03*
X139100Y25065D02*
D03*
X125900D02*
D03*
X139100Y40507D02*
D03*
X125900D02*
D03*
X84607Y55000D02*
D03*
X97808D02*
D03*
X172642Y131035D02*
D03*
X185842D02*
D03*
D16*
X140000Y58000D02*
D03*
Y67500D02*
D03*
Y77000D02*
D03*
X115000D02*
D03*
Y67500D02*
D03*
Y58000D02*
D03*
D24*
X157192Y89307D02*
X157743D01*
X151952Y84067D02*
X157192Y89307D01*
X150068Y84067D02*
X151952D01*
X143000Y77000D02*
X150068Y84067D01*
X140000Y77000D02*
X143000D01*
X185842Y118022D02*
Y131035D01*
X184112Y116292D02*
X185842Y118022D01*
X183493Y116292D02*
X184112D01*
X171607Y130000D02*
X172642Y131035D01*
X130000Y130000D02*
X171607D01*
X173493Y116292D02*
Y130185D01*
X172642Y131035D02*
X173493Y130185D01*
X186685Y101350D02*
X187235D01*
X183805Y104230D02*
X186685Y101350D01*
X183805Y104230D02*
Y104780D01*
X183493Y105092D02*
X183805Y104780D01*
X183493Y105092D02*
Y116292D01*
X157750Y116850D02*
X158300D01*
X163540Y111610D01*
X164028D01*
X170763Y104876D01*
Y102980D02*
Y104876D01*
Y102980D02*
X172493Y101250D01*
X157750Y89315D02*
Y103650D01*
X157743Y89307D02*
X157750Y89315D01*
X172493Y101250D02*
X187135D01*
X187235Y101350D01*
X157743Y89307D02*
X170763D01*
X172493Y91038D01*
Y91250D01*
X157743Y76108D02*
X174643D01*
X186685Y88150D01*
X187235D01*
X157743Y76108D02*
X157750Y76100D01*
Y64250D02*
Y76100D01*
X140000Y67500D02*
X153564D01*
X156814Y64250D01*
X157750D01*
X136600Y86490D02*
Y95000D01*
X134144Y84034D02*
X136600Y86490D01*
X132646Y84034D02*
X134144D01*
X130190Y81578D02*
X132646Y84034D01*
X130190Y72422D02*
Y81578D01*
Y72422D02*
X133382Y69230D01*
X138270D01*
X140000Y67500D01*
X187440Y57440D02*
X245000Y115000D01*
X140560Y57440D02*
X187440D01*
X140000Y58000D02*
X140560Y57440D01*
X245000Y115000D02*
Y130000D01*
X84607Y54450D02*
Y55000D01*
X81728Y51570D02*
X84607Y54450D01*
X81178Y51570D02*
X81728D01*
X49608Y20000D02*
X81178Y51570D01*
X15000Y20000D02*
X49608D01*
X125900Y25065D02*
Y60074D01*
X123900Y77000D02*
X125110Y75790D01*
X123400Y95000D02*
X125110Y93290D01*
Y60864D02*
Y93290D01*
Y60864D02*
X125900Y60074D01*
X97808Y55120D02*
Y55550D01*
Y55000D02*
Y55120D01*
X92568Y60790D02*
X97808Y55550D01*
X92568Y60790D02*
Y61278D01*
X26421Y127424D02*
X92568Y61278D01*
X17576Y127424D02*
X26421D01*
X15000Y130000D02*
X17576Y127424D01*
X100688Y58000D02*
X115000D01*
X97808Y55120D02*
X100688Y58000D01*
X115000Y77000D02*
X123900D01*
X139100Y25065D02*
Y40507D01*
Y57100D01*
X140000Y58000D01*
D25*
X15000Y130000D02*
D03*
Y20000D02*
D03*
X245000D02*
D03*
Y130000D02*
D03*
X130000D02*
D03*
D26*
X157750Y64250D02*
D03*
M02*
