G04*
G04 #@! TF.GenerationSoftware,Altium Limited,Altium Designer,20.1.12 (249)*
G04*
G04 Layer_Color=32768*
%FSLAX44Y44*%
%MOMM*%
G71*
G04*
G04 #@! TF.SameCoordinates,CE9DEF06-69A2-4F46-9589-B77C1FE2B784*
G04*
G04*
G04 #@! TF.FilePolarity,Positive*
G04*
G01*
G75*
%ADD26C,0.0500*%
D26*
X10000Y130000D02*
X20000D01*
X15000Y125000D02*
Y135000D01*
X-1200Y145450D02*
X31200D01*
Y114550D02*
Y145450D01*
X-1200Y114550D02*
X31200D01*
X-1200D02*
Y145450D01*
X10000Y20000D02*
X20000D01*
X15000Y15000D02*
Y25000D01*
X-1200Y35450D02*
X31200D01*
Y4550D02*
Y35450D01*
X-1200Y4550D02*
X31200D01*
X-1200D02*
Y35450D01*
X240000Y20000D02*
X250000D01*
X245000Y15000D02*
Y25000D01*
X228800Y35450D02*
X261200D01*
Y4550D02*
Y35450D01*
X228800Y4550D02*
X261200D01*
X228800D02*
Y35450D01*
X240000Y130000D02*
X250000D01*
X245000Y125000D02*
Y135000D01*
X228800Y145450D02*
X261200D01*
Y114550D02*
Y145450D01*
X228800Y114550D02*
X261200D01*
X228800D02*
Y145450D01*
X177743Y91000D02*
Y114000D01*
X166742Y91000D02*
X177743D01*
X166742D02*
Y114000D01*
X177743D01*
X125000Y130000D02*
X135000D01*
X130000Y125000D02*
Y135000D01*
X113800Y145450D02*
X146200D01*
Y114550D02*
Y145450D01*
X113800Y114550D02*
X146200D01*
X113800D02*
Y145450D01*
X142250Y88800D02*
Y101200D01*
X117750D02*
X142250D01*
X117750Y88800D02*
Y101200D01*
Y88800D02*
X142250D01*
X106500Y49750D02*
X148500D01*
X106500D02*
Y85250D01*
X148500D01*
Y49750D02*
Y85250D01*
X120250Y18865D02*
X144750D01*
X120250D02*
Y31265D01*
X144750D01*
Y18865D02*
Y31265D01*
X120250Y34307D02*
Y46708D01*
Y34307D02*
X144750D01*
Y46708D01*
X120250D02*
X144750D01*
X78958Y61200D02*
X103457D01*
Y48800D02*
Y61200D01*
X78958Y48800D02*
X103457D01*
X78958D02*
Y61200D01*
X163700Y90250D02*
Y114750D01*
X151300Y90250D02*
X163700D01*
X151300D02*
Y114750D01*
X163700D01*
X176042Y74808D02*
Y87207D01*
X151543D02*
X176042D01*
X151543Y74808D02*
Y87207D01*
Y74808D02*
X176042D01*
M02*
