G04*
G04 #@! TF.GenerationSoftware,Altium Limited,Altium Designer,20.1.12 (249)*
G04*
G04 Layer_Color=32896*
%FSLAX44Y44*%
%MOMM*%
G71*
G04*
G04 #@! TF.SameCoordinates,CE9DEF06-69A2-4F46-9589-B77C1FE2B784*
G04*
G04*
G04 #@! TF.FilePolarity,Positive*
G04*
G01*
G75*
%ADD11C,0.1000*%
G36*
X135640Y116280D02*
X141736D01*
Y114248D01*
X145800D01*
Y112216D01*
X147832D01*
Y110184D01*
Y108152D01*
X151896D01*
Y106120D01*
Y104088D01*
Y102056D01*
Y100024D01*
X155960D01*
Y97992D01*
X153928D01*
Y95960D01*
X155960D01*
Y93928D01*
Y91896D01*
Y89864D01*
Y87832D01*
X151896D01*
Y85800D01*
X153928D01*
Y83768D01*
X151896D01*
Y85800D01*
X149864D01*
Y87832D01*
X147832D01*
Y89864D01*
Y91896D01*
Y93928D01*
Y95960D01*
Y97992D01*
X143768D01*
Y100024D01*
Y102056D01*
Y104088D01*
Y106120D01*
X141736D01*
Y108152D01*
X135640D01*
Y110184D01*
X123448D01*
Y108152D01*
X119384D01*
Y106120D01*
Y104088D01*
Y102056D01*
X117352D01*
Y100024D01*
X119384D01*
Y97992D01*
Y95960D01*
X123448D01*
Y93928D01*
X119384D01*
Y91896D01*
X117352D01*
Y89864D01*
Y87832D01*
X113288D01*
Y85800D01*
X111256D01*
Y87832D01*
Y89864D01*
X109224D01*
Y91896D01*
X111256D01*
Y93928D01*
X109224D01*
Y95960D01*
Y97992D01*
Y100024D01*
Y102056D01*
X113288D01*
Y104088D01*
Y106120D01*
Y108152D01*
X115320D01*
Y110184D01*
X117352D01*
Y112216D01*
Y114248D01*
X121416D01*
Y116280D01*
X129544D01*
Y118312D01*
X135640D01*
Y116280D01*
D02*
G37*
G36*
X113288Y81736D02*
Y79704D01*
Y77672D01*
Y75640D01*
Y73608D01*
X115320D01*
Y71576D01*
X117352D01*
Y69544D01*
X115320D01*
Y71576D01*
X113288D01*
Y73608D01*
X111256D01*
Y75640D01*
X109224D01*
Y77672D01*
Y79704D01*
Y81736D01*
Y83768D01*
X113288D01*
Y81736D01*
D02*
G37*
G36*
X125480Y65480D02*
X131576D01*
Y63448D01*
X133608D01*
Y65480D01*
X135640D01*
Y63448D01*
Y61416D01*
Y59384D01*
X125480D01*
Y57352D01*
Y55320D01*
X127512D01*
Y53288D01*
X125480D01*
Y55320D01*
X121416D01*
Y57352D01*
X119384D01*
Y59384D01*
Y61416D01*
X121416D01*
Y63448D01*
Y65480D01*
X119384D01*
Y67512D01*
X121416D01*
Y65480D01*
X123448D01*
Y67512D01*
X125480D01*
Y65480D01*
D02*
G37*
G36*
X151896Y57352D02*
X155960D01*
Y55320D01*
Y53288D01*
X157992D01*
Y51256D01*
X162056D01*
Y49224D01*
X166120D01*
Y47192D01*
Y45160D01*
Y43128D01*
Y41096D01*
Y39064D01*
Y37032D01*
Y35000D01*
X141736D01*
Y37032D01*
Y39064D01*
X143768D01*
Y41096D01*
Y43128D01*
Y45160D01*
Y47192D01*
X145800D01*
Y45160D01*
X147832D01*
Y47192D01*
Y49224D01*
Y51256D01*
X149864D01*
Y53288D01*
Y55320D01*
Y57352D01*
Y59384D01*
X151896D01*
Y57352D01*
D02*
G37*
G36*
X131576Y45160D02*
X135640D01*
Y43128D01*
Y41096D01*
Y39064D01*
X131576D01*
Y37032D01*
X129544D01*
Y35000D01*
X123448D01*
Y37032D01*
X125480D01*
Y39064D01*
X123448D01*
Y41096D01*
Y43128D01*
X125480D01*
Y45160D01*
Y47192D01*
X131576D01*
Y45160D01*
D02*
G37*
G36*
X119384Y47192D02*
Y45160D01*
Y43128D01*
Y41096D01*
Y39064D01*
Y37032D01*
Y35000D01*
X95000D01*
Y37032D01*
Y39064D01*
X99064D01*
Y41096D01*
Y43128D01*
X103128D01*
Y45160D01*
X105160D01*
Y47192D01*
X117352D01*
Y49224D01*
X119384D01*
Y47192D01*
D02*
G37*
D11*
X186500Y30229D02*
Y25230D01*
X183168D01*
X181502D02*
X179835D01*
X180669D01*
Y28563D01*
X181502D01*
X177336Y25230D02*
Y28563D01*
X174837D01*
X174004Y27729D01*
Y25230D01*
X170672Y23564D02*
X169839D01*
X169006Y24397D01*
Y28563D01*
X171505D01*
X172338Y27729D01*
Y26063D01*
X171505Y25230D01*
X169006D01*
X167340D02*
Y30229D01*
Y26896D02*
X164840Y28563D01*
X167340Y26896D02*
X164840Y25230D01*
X159842D02*
X161508D01*
X162341Y26063D01*
Y27729D01*
X161508Y28563D01*
X159842D01*
X159009Y27729D01*
Y26896D01*
X162341D01*
X149012Y25230D02*
X149845Y26063D01*
X150678Y25230D01*
X151511D01*
X152345Y26063D01*
Y26896D01*
X151511Y27729D01*
X152345Y28563D01*
Y29396D01*
X151511Y30229D01*
X150678D01*
X149845Y29396D01*
Y28563D01*
X150678Y27729D01*
X149845Y26896D01*
Y26063D01*
X149012Y27729D02*
X149845Y26896D01*
X151511Y27729D02*
X150678D01*
X139016Y30229D02*
X140682D01*
X139849D01*
Y26063D01*
X140682Y25230D01*
X141515D01*
X142348Y26063D01*
X136516Y25230D02*
X134850D01*
X134017Y26063D01*
Y27729D01*
X134850Y28563D01*
X136516D01*
X137349Y27729D01*
Y26063D01*
X136516Y25230D01*
X132351D02*
Y28563D01*
X129852D01*
X129019Y27729D01*
Y25230D01*
X126520Y28563D02*
X124853D01*
X124020Y27729D01*
Y25230D01*
X126520D01*
X127353Y26063D01*
X126520Y26896D01*
X124020D01*
X121521Y29396D02*
Y28563D01*
X122354D01*
X120688D01*
X121521D01*
Y26063D01*
X120688Y25230D01*
X118189Y30229D02*
Y25230D01*
Y27729D01*
X117356Y28563D01*
X115690D01*
X114857Y27729D01*
Y25230D01*
X112358Y28563D02*
X110691D01*
X109858Y27729D01*
Y25230D01*
X112358D01*
X113191Y26063D01*
X112358Y26896D01*
X109858D01*
X108192Y25230D02*
Y28563D01*
X105693D01*
X104860Y27729D01*
Y25230D01*
X102361Y31062D02*
Y29396D01*
X103194Y28563D01*
X99862Y25230D02*
X97362D01*
X96529Y26063D01*
X97362Y26896D01*
X99029D01*
X99862Y27729D01*
X99029Y28563D01*
X96529D01*
X86533Y30229D02*
X89865D01*
Y27729D01*
X88199D01*
X89865D01*
Y25230D01*
X84867Y30229D02*
Y29396D01*
X83200Y27729D01*
X81534Y29396D01*
Y30229D01*
X83200Y27729D02*
Y25230D01*
X79868D02*
Y30229D01*
X77369D01*
X76536Y29396D01*
Y27729D01*
X77369Y26896D01*
X79868D01*
X186500Y20164D02*
Y15166D01*
X184001D01*
X183168Y15999D01*
Y16832D01*
X184001Y17665D01*
X186500D01*
X184001D01*
X183168Y18498D01*
Y19331D01*
X184001Y20164D01*
X186500D01*
X178169Y19331D02*
X179002Y20164D01*
X180669D01*
X181502Y19331D01*
Y15999D01*
X180669Y15166D01*
X179002D01*
X178169Y15999D01*
X173171Y19331D02*
X174004Y20164D01*
X175670D01*
X176503Y19331D01*
Y15999D01*
X175670Y15166D01*
X174004D01*
X173171Y15999D01*
X166507Y15166D02*
Y20164D01*
X164007D01*
X163174Y19331D01*
Y17665D01*
X164007Y16832D01*
X166507D01*
X164840D02*
X163174Y15166D01*
X161508Y20164D02*
X158176Y15166D01*
Y20164D02*
X161508Y15166D01*
X151511D02*
Y18498D01*
X149845Y20164D01*
X148179Y18498D01*
Y15166D01*
Y17665D01*
X151511D01*
X146513Y15166D02*
Y18498D01*
X145680D01*
X144847Y17665D01*
Y15166D01*
Y17665D01*
X144014Y18498D01*
X143181Y17665D01*
Y15166D01*
X141515Y13500D02*
Y18498D01*
X139016D01*
X138182Y17665D01*
Y15999D01*
X139016Y15166D01*
X141515D01*
X131518Y20164D02*
Y15166D01*
X129019D01*
X128186Y15999D01*
Y16832D01*
X129019Y17665D01*
X131518D01*
X129019D01*
X128186Y18498D01*
Y19331D01*
X129019Y20164D01*
X131518D01*
X125687Y15166D02*
X124021D01*
X123187Y15999D01*
Y17665D01*
X124021Y18498D01*
X125687D01*
X126520Y17665D01*
Y15999D01*
X125687Y15166D01*
X120688Y18498D02*
X119022D01*
X118189Y17665D01*
Y15166D01*
X120688D01*
X121521Y15999D01*
X120688Y16832D01*
X118189D01*
X116523Y18498D02*
Y15166D01*
Y16832D01*
X115690Y17665D01*
X114857Y18498D01*
X114024D01*
X108192Y20164D02*
Y15166D01*
X110691D01*
X111524Y15999D01*
Y17665D01*
X110691Y18498D01*
X108192D01*
X101528Y20164D02*
Y16832D01*
X99862Y15166D01*
X98196Y16832D01*
Y20164D01*
X93197Y15166D02*
X96529D01*
X93197Y18498D01*
Y19331D01*
X94030Y20164D01*
X95696D01*
X96529Y19331D01*
X91531Y15166D02*
Y15999D01*
X90698D01*
Y15166D01*
X91531D01*
X87366Y19331D02*
X86533Y20164D01*
X84867D01*
X84033Y19331D01*
Y15999D01*
X84867Y15166D01*
X86533D01*
X87366Y15999D01*
Y19331D01*
M02*
