G04*
G04 #@! TF.GenerationSoftware,Altium Limited,Altium Designer,20.1.12 (249)*
G04*
G04 Layer_Color=65535*
%FSLAX44Y44*%
%MOMM*%
G71*
G04*
G04 #@! TF.SameCoordinates,CE9DEF06-69A2-4F46-9589-B77C1FE2B784*
G04*
G04*
G04 #@! TF.FilePolarity,Positive*
G04*
G01*
G75*
%ADD10C,0.2000*%
%ADD11C,0.1000*%
D10*
X29200Y116550D02*
Y143450D01*
X800D02*
X29200D01*
X800Y116550D02*
Y143450D01*
Y116550D02*
X29200D01*
Y6550D02*
Y33450D01*
X800D02*
X29200D01*
X800Y6550D02*
Y33450D01*
Y6550D02*
X29200D01*
X259200D02*
Y33450D01*
X230800D02*
X259200D01*
X230800Y6550D02*
Y33450D01*
Y6550D02*
X259200D01*
Y116550D02*
Y143450D01*
X230800D02*
X259200D01*
X230800Y116550D02*
Y143450D01*
Y116550D02*
X259200D01*
X144200D02*
Y143450D01*
X115800D02*
X144200D01*
X115800Y116550D02*
Y143450D01*
Y116550D02*
X144200D01*
X124500Y53000D02*
X130500D01*
X124500D02*
Y82000D01*
X130500D01*
Y53000D02*
Y82000D01*
X134000Y51500D02*
X146000D01*
D11*
X203500Y73562D02*
Y68564D01*
X205999D01*
X206832Y69397D01*
Y72730D01*
X205999Y73562D01*
X203500D01*
X210998Y68564D02*
X209331D01*
X208498Y69397D01*
Y71063D01*
X209331Y71896D01*
X210998D01*
X211831Y71063D01*
Y70230D01*
X208498D01*
X213497Y68564D02*
X215996D01*
X216829Y69397D01*
X215996Y70230D01*
X214330D01*
X213497Y71063D01*
X214330Y71896D01*
X216829D01*
X218495Y68564D02*
X220161D01*
X219328D01*
Y71896D01*
X218495D01*
X224326Y66898D02*
X225160D01*
X225993Y67731D01*
Y71896D01*
X223493D01*
X222660Y71063D01*
Y69397D01*
X223493Y68564D01*
X225993D01*
X227659D02*
Y71896D01*
X230158D01*
X230991Y71063D01*
Y68564D01*
X235156D02*
X233490D01*
X232657Y69397D01*
Y71063D01*
X233490Y71896D01*
X235156D01*
X235989Y71063D01*
Y70230D01*
X232657D01*
X240988Y73562D02*
Y68564D01*
X238489D01*
X237656Y69397D01*
Y71063D01*
X238489Y71896D01*
X240988D01*
X248485D02*
X250151D01*
X250984Y71063D01*
Y68564D01*
X248485D01*
X247652Y69397D01*
X248485Y70230D01*
X250984D01*
X253484Y72730D02*
Y71896D01*
X252651D01*
X254317D01*
X253484D01*
Y69397D01*
X254317Y68564D01*
X203500Y62665D02*
X204333Y63498D01*
X205999D01*
X206832Y62665D01*
Y61832D01*
X205999Y60999D01*
X206832Y60166D01*
Y59333D01*
X205999Y58500D01*
X204333D01*
X203500Y59333D01*
Y60166D01*
X204333Y60999D01*
X203500Y61832D01*
Y62665D01*
X204333Y60999D02*
X205999D01*
X215996Y63498D02*
X214330D01*
X213497Y62665D01*
Y59333D01*
X214330Y58500D01*
X215996D01*
X216829Y59333D01*
Y62665D01*
X215996Y63498D01*
X221827Y61832D02*
X219328D01*
X218495Y60999D01*
Y59333D01*
X219328Y58500D01*
X221827D01*
X224326Y62665D02*
Y61832D01*
X223493D01*
X225160D01*
X224326D01*
Y59333D01*
X225160Y58500D01*
X235989D02*
X232657D01*
X235989Y61832D01*
Y62665D01*
X235156Y63498D01*
X233490D01*
X232657Y62665D01*
X237656D02*
X238489Y63498D01*
X240155D01*
X240988Y62665D01*
Y59333D01*
X240155Y58500D01*
X238489D01*
X237656Y59333D01*
Y62665D01*
X245986Y58500D02*
X242654D01*
X245986Y61832D01*
Y62665D01*
X245153Y63498D01*
X243487D01*
X242654Y62665D01*
X247652Y58500D02*
X249318D01*
X248485D01*
Y63498D01*
X247652Y62665D01*
X86832Y14331D02*
X85999Y15165D01*
X84333D01*
X83500Y14331D01*
Y13498D01*
X84333Y12665D01*
X85999D01*
X86832Y11832D01*
Y10999D01*
X85999Y10166D01*
X84333D01*
X83500Y10999D01*
X89331Y14331D02*
Y13498D01*
X88498D01*
X90164D01*
X89331D01*
Y10999D01*
X90164Y10166D01*
X93497Y13498D02*
X95163D01*
X95996Y12665D01*
Y10166D01*
X93497D01*
X92664Y10999D01*
X93497Y11832D01*
X95996D01*
X97662Y15165D02*
Y10166D01*
X100161D01*
X100994Y10999D01*
Y11832D01*
Y12665D01*
X100161Y13498D01*
X97662D01*
X102660Y10166D02*
X104326D01*
X103493D01*
Y13498D01*
X102660D01*
X106826Y10166D02*
X108492D01*
X107659D01*
Y15165D01*
X106826D01*
X110991Y10166D02*
X112657D01*
X111824D01*
Y13498D01*
X110991D01*
X115989Y14331D02*
Y13498D01*
X115156D01*
X116823D01*
X115989D01*
Y10999D01*
X116823Y10166D01*
X119322Y13498D02*
Y10999D01*
X120155Y10166D01*
X122654D01*
Y9333D01*
X121821Y8500D01*
X120988D01*
X122654Y10166D02*
Y13498D01*
X132651Y14331D02*
X131818Y15165D01*
X130152D01*
X129318Y14331D01*
Y10999D01*
X130152Y10166D01*
X131818D01*
X132651Y10999D01*
X135150Y10166D02*
X136816D01*
X137649Y10999D01*
Y12665D01*
X136816Y13498D01*
X135150D01*
X134317Y12665D01*
Y10999D01*
X135150Y10166D01*
X139315D02*
Y13498D01*
X140148D01*
X140981Y12665D01*
Y10166D01*
Y12665D01*
X141814Y13498D01*
X142647Y12665D01*
Y10166D01*
X144313Y8500D02*
Y13498D01*
X146813D01*
X147646Y12665D01*
Y10999D01*
X146813Y10166D01*
X144313D01*
X151811D02*
X150145D01*
X149312Y10999D01*
Y12665D01*
X150145Y13498D01*
X151811D01*
X152644Y12665D01*
Y11832D01*
X149312D01*
X154310Y10166D02*
Y13498D01*
X156809D01*
X157642Y12665D01*
Y10166D01*
X159309D02*
X161808D01*
X162641Y10999D01*
X161808Y11832D01*
X160142D01*
X159309Y12665D01*
X160142Y13498D01*
X162641D01*
X165140D02*
X166806D01*
X167639Y12665D01*
Y10166D01*
X165140D01*
X164307Y10999D01*
X165140Y11832D01*
X167639D01*
X170138Y14331D02*
Y13498D01*
X169305D01*
X170971D01*
X170138D01*
Y10999D01*
X170971Y10166D01*
X173471D02*
X175137D01*
X174304D01*
Y13498D01*
X173471D01*
X178469Y10166D02*
X180135D01*
X180968Y10999D01*
Y12665D01*
X180135Y13498D01*
X178469D01*
X177636Y12665D01*
Y10999D01*
X178469Y10166D01*
X182634D02*
Y13498D01*
X185133D01*
X185967Y12665D01*
Y10166D01*
X6000Y108498D02*
Y105166D01*
X7666Y103500D01*
X9332Y105166D01*
Y108498D01*
X10998Y103500D02*
X12665D01*
X11831D01*
Y106832D01*
X10998D01*
X15164Y103500D02*
Y106832D01*
X17663D01*
X18496Y105999D01*
Y103500D01*
X25160Y105166D02*
X28493D01*
X25160Y106832D02*
X28493D01*
X38489Y108498D02*
X35157D01*
Y105999D01*
X36823Y106832D01*
X37656D01*
X38489Y105999D01*
Y104333D01*
X37656Y103500D01*
X35990D01*
X35157Y104333D01*
X40156Y108498D02*
Y105166D01*
X41822Y103500D01*
X43488Y105166D01*
Y108498D01*
X41832Y12665D02*
X40999Y13498D01*
X39333D01*
X38500Y12665D01*
Y9333D01*
X39333Y8500D01*
X40999D01*
X41832Y9333D01*
Y10999D01*
X40166D01*
X43498Y8500D02*
Y13498D01*
X46831Y8500D01*
Y13498D01*
X48497D02*
Y8500D01*
X50996D01*
X51829Y9333D01*
Y12665D01*
X50996Y13498D01*
X48497D01*
X214332Y12665D02*
X213499Y13498D01*
X211833D01*
X211000Y12665D01*
Y9333D01*
X211833Y8500D01*
X213499D01*
X214332Y9333D01*
Y10999D01*
X212666D01*
X215998Y8500D02*
Y13498D01*
X219331Y8500D01*
Y13498D01*
X220997D02*
Y8500D01*
X223496D01*
X224329Y9333D01*
Y12665D01*
X223496Y13498D01*
X220997D01*
X226832Y109331D02*
X225999Y110164D01*
X224333D01*
X223500Y109331D01*
Y108498D01*
X224333Y107665D01*
X225999D01*
X226832Y106832D01*
Y105999D01*
X225999Y105166D01*
X224333D01*
X223500Y105999D01*
X228498Y105166D02*
X230165D01*
X229331D01*
Y108498D01*
X228498D01*
X234330Y103500D02*
X235163D01*
X235996Y104333D01*
Y108498D01*
X233497D01*
X232664Y107665D01*
Y105999D01*
X233497Y105166D01*
X235996D01*
X245160Y110164D02*
X243493D01*
X242660Y109331D01*
Y105999D01*
X243493Y105166D01*
X245160D01*
X245993Y105999D01*
Y109331D01*
X245160Y110164D01*
X247659Y108498D02*
Y105999D01*
X248492Y105166D01*
X250991D01*
Y108498D01*
X253490Y109331D02*
Y108498D01*
X252657D01*
X254323D01*
X253490D01*
Y105999D01*
X254323Y105166D01*
X151000Y142664D02*
Y137666D01*
X153499D01*
X154332Y138499D01*
Y139332D01*
X153499Y140165D01*
X151000D01*
X153499D01*
X154332Y140998D01*
Y141831D01*
X153499Y142664D01*
X151000D01*
X156831Y137666D02*
X158497D01*
X159331Y138499D01*
Y140165D01*
X158497Y140998D01*
X156831D01*
X155998Y140165D01*
Y138499D01*
X156831Y137666D01*
X164329Y142664D02*
Y137666D01*
X161830D01*
X160997Y138499D01*
Y140165D01*
X161830Y140998D01*
X164329D01*
X165995D02*
Y138499D01*
X166828Y137666D01*
X169327D01*
Y136833D01*
X168494Y136000D01*
X167661D01*
X169327Y137666D02*
Y140998D01*
X175992Y137666D02*
Y140998D01*
X177658Y142664D01*
X179324Y140998D01*
Y137666D01*
Y140165D01*
X175992D01*
X182656Y136000D02*
X183489D01*
X184322Y136833D01*
Y140998D01*
X181823D01*
X180990Y140165D01*
Y138499D01*
X181823Y137666D01*
X184322D01*
X189321Y141831D02*
X188488Y142664D01*
X186822D01*
X185989Y141831D01*
Y138499D01*
X186822Y137666D01*
X188488D01*
X189321Y138499D01*
X190987Y137666D02*
X192653D01*
X191820D01*
Y142664D01*
X190987D01*
X36668Y140001D02*
Y144999D01*
X39167D01*
X40000Y144166D01*
Y142500D01*
X39167Y141667D01*
X36668D01*
X41666Y140001D02*
X43332D01*
X42499D01*
Y144999D01*
X41666Y144166D01*
X35835Y30001D02*
Y34999D01*
X38334D01*
X39167Y34166D01*
Y32500D01*
X38334Y31667D01*
X35835D01*
X40833Y34166D02*
X41666Y34999D01*
X43332D01*
X44165Y34166D01*
Y33333D01*
X43332Y32500D01*
X42499D01*
X43332D01*
X44165Y31667D01*
Y30834D01*
X43332Y30001D01*
X41666D01*
X40833Y30834D01*
X215835Y27501D02*
Y32499D01*
X218334D01*
X219167Y31666D01*
Y30000D01*
X218334Y29167D01*
X215835D01*
X223332Y27501D02*
Y32499D01*
X220833Y30000D01*
X224165D01*
X215835Y137501D02*
Y142499D01*
X218334D01*
X219167Y141666D01*
Y140000D01*
X218334Y139167D01*
X215835D01*
X224165Y137501D02*
X220833D01*
X224165Y140833D01*
Y141666D01*
X223332Y142499D01*
X221666D01*
X220833Y141666D01*
X170835Y117501D02*
Y122499D01*
X173334D01*
X174167Y121666D01*
Y120000D01*
X173334Y119167D01*
X170835D01*
X172501D02*
X174167Y117501D01*
X178332D02*
Y122499D01*
X175833Y120000D01*
X179165D01*
X98335Y132501D02*
Y137499D01*
X100834D01*
X101667Y136666D01*
Y135000D01*
X100834Y134167D01*
X98335D01*
X106665Y137499D02*
X103333D01*
Y135000D01*
X104999Y135833D01*
X105832D01*
X106665Y135000D01*
Y133334D01*
X105832Y132501D01*
X104166D01*
X103333Y133334D01*
X105835Y92501D02*
Y97499D01*
X108334D01*
X109167Y96666D01*
Y95000D01*
X108334Y94167D01*
X105835D01*
X107501D02*
X109167Y92501D01*
X114165D02*
X110833D01*
X114165Y95833D01*
Y96666D01*
X113332Y97499D01*
X111666D01*
X110833Y96666D01*
X92085Y87499D02*
X93751D01*
X92918D01*
Y82501D01*
X92085D01*
X93751D01*
X99583Y86666D02*
X98750Y87499D01*
X97084D01*
X96250Y86666D01*
Y83334D01*
X97084Y82501D01*
X98750D01*
X99583Y83334D01*
X101249Y82501D02*
X102915D01*
X102082D01*
Y87499D01*
X101249Y86666D01*
X151667Y26666D02*
X150834Y27499D01*
X149168D01*
X148335Y26666D01*
Y23334D01*
X149168Y22501D01*
X150834D01*
X151667Y23334D01*
X153333Y26666D02*
X154166Y27499D01*
X155832D01*
X156665Y26666D01*
Y25833D01*
X155832Y25000D01*
X154999D01*
X155832D01*
X156665Y24167D01*
Y23334D01*
X155832Y22501D01*
X154166D01*
X153333Y23334D01*
X149168Y37501D02*
Y42499D01*
X151667D01*
X152500Y41666D01*
Y40000D01*
X151667Y39167D01*
X149168D01*
X150834D02*
X152500Y37501D01*
X154166D02*
X155832D01*
X154999D01*
Y42499D01*
X154166Y41666D01*
X90000Y69166D02*
X89167Y69999D01*
X87501D01*
X86668Y69166D01*
Y65834D01*
X87501Y65001D01*
X89167D01*
X90000Y65834D01*
X91666Y65001D02*
X93332D01*
X92499D01*
Y69999D01*
X91666Y69166D01*
X156667Y121666D02*
X155834Y122499D01*
X154168D01*
X153335Y121666D01*
Y118334D01*
X154168Y117501D01*
X155834D01*
X156667Y118334D01*
X161665Y117501D02*
X158333D01*
X161665Y120833D01*
Y121666D01*
X160832Y122499D01*
X159166D01*
X158333Y121666D01*
X183335Y80001D02*
Y84999D01*
X185834D01*
X186667Y84166D01*
Y82500D01*
X185834Y81667D01*
X183335D01*
X185001D02*
X186667Y80001D01*
X188333Y84166D02*
X189166Y84999D01*
X190832D01*
X191665Y84166D01*
Y83333D01*
X190832Y82500D01*
X189999D01*
X190832D01*
X191665Y81667D01*
Y80834D01*
X190832Y80001D01*
X189166D01*
X188333Y80834D01*
M02*
