G04*
G04 #@! TF.GenerationSoftware,Altium Limited,Altium Designer,20.1.12 (249)*
G04*
G04 Layer_Color=16711935*
%FSLAX44Y44*%
%MOMM*%
G71*
G04*
G04 #@! TF.SameCoordinates,CE9DEF06-69A2-4F46-9589-B77C1FE2B784*
G04*
G04*
G04 #@! TF.FilePolarity,Positive*
G04*
G01*
G75*
%ADD10C,0.2000*%
%ADD11C,0.1000*%
D10*
X0Y0D02*
Y150000D01*
Y0D02*
X260000D01*
Y150000D01*
X0D02*
X260000D01*
D11*
X2300Y142700D02*
X27700D01*
Y117300D02*
Y142700D01*
X2300Y117300D02*
X27700D01*
X2300D02*
Y142700D01*
Y32700D02*
X27700D01*
Y7300D02*
Y32700D01*
X2300Y7300D02*
X27700D01*
X2300D02*
Y32700D01*
X232300D02*
X257700D01*
Y7300D02*
Y32700D01*
X232300Y7300D02*
X257700D01*
X232300D02*
Y32700D01*
Y142700D02*
X257700D01*
Y117300D02*
Y142700D01*
X232300Y117300D02*
X257700D01*
X232300D02*
Y142700D01*
X174743Y97500D02*
Y107500D01*
X169743Y97500D02*
X174743D01*
X169743D02*
Y107500D01*
X174743D01*
X117300Y142700D02*
X142700D01*
Y117300D02*
Y142700D01*
X117300Y117300D02*
X142700D01*
X117300D02*
Y142700D01*
X138000Y91000D02*
Y99000D01*
X122000D02*
X138000D01*
X122000Y91000D02*
Y99000D01*
Y91000D02*
X138000D01*
X119500Y53000D02*
X135500D01*
X119500D02*
Y82000D01*
X135500D01*
Y53000D02*
Y82000D01*
X126000Y53000D02*
X135500Y62500D01*
X124500Y21065D02*
X140500D01*
X124500D02*
Y29065D01*
X140500D01*
Y21065D02*
Y29065D01*
X124500Y36507D02*
Y44507D01*
Y36507D02*
X140500D01*
Y44507D01*
X124500D02*
X140500D01*
X83208Y59000D02*
X99207D01*
Y51000D02*
Y59000D01*
X83208Y51000D02*
X99207D01*
X83208D02*
Y59000D01*
X161500Y94500D02*
Y110500D01*
X153500Y94500D02*
X161500D01*
X153500D02*
Y110500D01*
X161500D01*
X171793Y77007D02*
Y85007D01*
X155793D02*
X171793D01*
X155793Y77007D02*
Y85007D01*
Y77007D02*
X171793D01*
M02*
